<svg data-v-fde0c5aa="" xmlns="http://www.w3.org/2000/svg" viewBox="0 0 300 300" class="iconLeftSlogan"><!----><defs data-v-fde0c5aa=""><!----></defs><rect data-v-fde0c5aa="" fill="transparent" x="0" y="0" width="300px" height="300px" class="logo-background-square"></rect><defs data-v-fde0c5aa=""><!----></defs><g data-v-fde0c5aa="" id="18cd57c2-427d-40cb-92fe-b1b176894082" fill="#000000" transform="matrix(0.9762555308979735,0,0,0.9762555308979735,82.80962591354567,128.7828237079145)"><path d="M1.95 12.01L1.95 13.19L1.95 13.19Q1.95 13.73 2.48 14.14L2.48 14.14L2.48 14.14Q3.01 14.55 3.85 14.55L3.85 14.55L3.85 14.55Q4.69 14.55 5.18 14.14L5.18 14.14L5.18 14.14Q5.67 13.73 5.67 13.06L5.67 13.06L5.67 13.06Q5.67 12.21 4.65 11.65L4.65 11.65L2.58 10.54L2.58 10.54Q0.78 9.58 0.78 7.78L0.78 7.78L0.78 7.78Q0.78 6.64 1.62 5.81L1.62 5.81L1.62 5.81Q2.46 4.98 4.13 4.98L4.13 4.98L4.13 4.98Q5.25 4.98 6.26 5.43L6.26 5.43L6.26 5.43Q7.27 5.88 7.27 6.50L7.27 6.50L7.27 6.50Q7.27 6.73 7.11 7.04L7.11 7.04L6.44 8.33L5.95 8.18L5.95 7L5.95 7Q5.95 6.37 5.40 6.01L5.40 6.01L5.40 6.01Q4.84 5.64 4.08 5.64L4.08 5.64L4.08 5.64Q3.32 5.64 2.91 6.09L2.91 6.09L2.91 6.09Q2.51 6.54 2.51 7.11L2.51 7.11L2.51 7.11Q2.51 8.26 3.54 8.81L3.54 8.81L5.32 9.74L5.32 9.74Q7.35 10.81 7.35 12.54L7.35 12.54L7.35 12.54Q7.35 13.86 6.36 14.53L6.36 14.53L6.36 14.53Q5.38 15.20 3.86 15.20L3.86 15.20L3.86 15.20Q2.73 15.20 1.68 14.76L1.68 14.76L1.68 14.76Q0.63 14.31 0.63 13.69L0.63 13.69L0.63 13.69Q0.63 13.45 0.78 13.15L0.78 13.15L1.46 11.86L1.95 12.01ZM14.24 7.99L16.34 7.99L16.34 13.44L16.34 13.44Q16.34 13.82 16.52 14.04L16.52 14.04L16.52 14.04Q16.70 14.25 17.08 14.25L17.08 14.25L17.08 14.25Q17.46 14.25 17.95 13.85L17.95 13.85L18.20 14.18L18.20 14.18Q17.08 15.20 15.96 15.20L15.96 15.20L15.96 15.20Q14.63 15.20 14.32 13.96L14.32 13.96L14.32 13.96Q13.59 15.20 12.18 15.20L12.18 15.20L12.18 15.20Q10.57 15.20 9.73 14.16L9.73 14.16L9.73 14.16Q8.89 13.12 8.89 11.50L8.89 11.50L8.89 11.50Q8.89 9.88 9.79 8.83L9.79 8.83L9.79 8.83Q10.70 7.78 12.32 7.78L12.32 7.78L12.32 7.78Q13.57 7.78 14.24 8.78L14.24 8.78L14.24 7.99ZM11.45 9.37L11.45 9.37L11.45 9.37Q11.06 10.15 11.06 11.49L11.06 11.49L11.06 11.49Q11.06 12.84 11.45 13.62L11.45 13.62L11.45 13.62Q11.84 14.41 12.65 14.41L12.65 14.41L12.65 14.41Q13.45 14.41 13.88 13.62L13.88 13.62L13.88 13.62Q14.31 12.82 14.31 11.49L14.31 11.49L14.31 11.49Q14.31 10.16 13.88 9.37L13.88 9.37L13.88 9.37Q13.45 8.58 12.65 8.58L12.65 8.58L12.65 8.58Q11.84 8.58 11.45 9.37ZM19.66 7.99L19.66 7.99L19.66 7.99Q20.80 7.99 21.73 8.69L21.73 8.69L21.73 8.69Q22.26 8.19 22.82 7.99L22.82 7.99L22.82 7.99Q23.38 7.78 24.26 7.78L24.26 7.78L24.26 7.78Q25.13 7.78 25.68 8.34L25.68 8.34L25.68 8.34Q26.24 8.89 26.24 9.84L26.24 9.84L26.24 13.44L26.24 13.44Q26.24 13.82 26.42 14.04L26.42 14.04L26.42 14.04Q26.60 14.25 26.98 14.25L26.98 14.25L26.98 14.25Q27.36 14.25 27.85 13.85L27.85 13.85L28.10 14.18L28.10 14.18Q26.98 15.20 25.86 15.20L25.86 15.20L25.86 15.20Q24.14 15.20 24.14 13.15L24.14 13.15L24.14 9.55L24.14 9.55Q24.14 9.11 23.87 8.88L23.87 8.88L23.87 8.88Q23.60 8.64 23.14 8.64L23.14 8.64L23.14 8.64Q22.67 8.64 22.21 9.02L22.21 9.02L22.21 9.02Q21.76 9.39 21.76 10.00L21.76 10.00L21.76 14.99L19.66 14.99L19.66 8.55L19.66 8.55Q19.03 8.55 18.54 8.76L18.54 8.76L18.34 8.25L18.34 8.25Q18.94 7.99 19.66 7.99ZM31.88 8.64L31.88 8.64L31.88 16.21L31.88 16.21Q31.88 17.32 31.25 18.01L31.25 18.01L31.25 18.01Q30.62 18.70 29.22 18.70L29.22 18.70L29.22 18.70Q28.53 18.70 27.91 18.45L27.91 18.45L27.91 18.45Q27.29 18.20 26.88 17.78L26.88 17.78L27.19 17.35L27.19 17.35Q27.79 17.86 28.60 17.86L28.60 17.86L28.60 17.86Q29.78 17.86 29.78 16.32L29.78 16.32L29.78 8.46L29.78 8.46Q29.01 8.65 28.60 9.14L28.60 9.14L28.22 8.71L28.22 8.71Q28.63 8.29 29.25 8.04L29.25 8.04L29.25 8.04Q29.88 7.78 30.49 7.78L30.49 7.78L30.49 7.78Q31.09 7.78 31.49 8.03L31.49 8.03L31.49 8.03Q31.88 8.27 31.88 8.64ZM30.04 6.40L30.04 6.40L30.04 6.40Q29.71 6.08 29.71 5.61L29.71 5.61L29.71 5.61Q29.71 5.15 30.04 4.82L30.04 4.82L30.04 4.82Q30.37 4.49 30.83 4.49L30.83 4.49L30.83 4.49Q31.29 4.49 31.62 4.82L31.62 4.82L31.62 4.82Q31.95 5.15 31.95 5.61L31.95 5.61L31.95 5.61Q31.95 6.08 31.62 6.40L31.62 6.40L31.62 6.40Q31.29 6.73 30.83 6.73L30.83 6.73L30.83 6.73Q30.37 6.73 30.04 6.40ZM39.44 7.99L41.54 7.99L41.54 13.44L41.54 13.44Q41.54 13.82 41.72 14.04L41.72 14.04L41.72 14.04Q41.90 14.25 42.28 14.25L42.28 14.25L42.28 14.25Q42.66 14.25 43.15 13.85L43.15 13.85L43.40 14.18L43.40 14.18Q42.28 15.20 41.16 15.20L41.16 15.20L41.16 15.20Q39.83 15.20 39.52 13.96L39.52 13.96L39.52 13.96Q38.79 15.20 37.38 15.20L37.38 15.20L37.38 15.20Q35.77 15.20 34.93 14.16L34.93 14.16L34.93 14.16Q34.09 13.12 34.09 11.50L34.09 11.50L34.09 11.50Q34.09 9.88 34.99 8.83L34.99 8.83L34.99 8.83Q35.90 7.78 37.52 7.78L37.52 7.78L37.52 7.78Q38.77 7.78 39.44 8.78L39.44 8.78L39.44 7.99ZM36.65 9.37L36.65 9.37L36.65 9.37Q36.26 10.15 36.26 11.49L36.26 11.49L36.26 11.49Q36.26 12.84 36.65 13.62L36.65 13.62L36.65 13.62Q37.04 14.41 37.85 14.41L37.85 14.41L37.85 14.41Q38.65 14.41 39.08 13.62L39.08 13.62L39.08 13.62Q39.51 12.82 39.51 11.49L39.51 11.49L39.51 11.49Q39.51 10.16 39.08 9.37L39.08 9.37L39.08 9.37Q38.65 8.58 37.85 8.58L37.85 8.58L37.85 8.58Q37.04 8.58 36.65 9.37ZM45.28 6.40L45.28 6.40L45.28 6.40Q44.95 6.08 44.95 5.61L44.95 5.61L44.95 5.61Q44.95 5.15 45.28 4.82L45.28 4.82L45.28 4.82Q45.61 4.49 46.07 4.49L46.07 4.49L46.07 4.49Q46.54 4.49 46.86 4.82L46.86 4.82L46.86 4.82Q47.19 5.15 47.19 5.61L47.19 5.61L47.19 5.61Q47.19 6.08 46.86 6.40L46.86 6.40L46.86 6.40Q46.54 6.73 46.07 6.73L46.07 6.73L46.07 6.73Q45.61 6.73 45.28 6.40ZM45.81 7.78L45.81 7.78L45.81 7.78Q47.12 7.78 47.12 8.92L47.12 8.92L47.12 13.44L47.12 13.44Q47.12 13.82 47.31 14.04L47.31 14.04L47.31 14.04Q47.49 14.25 47.87 14.25L47.87 14.25L47.87 14.25Q48.24 14.25 48.73 13.85L48.73 13.85L48.99 14.18L48.99 14.18Q47.87 15.20 46.75 15.20L46.75 15.20L46.75 15.20Q45.02 15.20 45.02 13.15L45.02 13.15L45.02 8.46L45.02 8.46Q44.25 8.65 43.85 9.14L43.85 9.14L43.47 8.71L43.47 8.71Q43.88 8.29 44.50 8.04L44.50 8.04L44.50 8.04Q45.12 7.78 45.81 7.78ZM54.73 5.75L53.89 5.75L53.89 5.19L56.97 5.19L56.97 5.19Q60.41 5.19 61.28 6.85L61.28 6.85L61.28 6.85Q61.63 7.49 61.63 8.41L61.63 8.41L61.63 8.41Q61.63 9.34 61.28 9.98L61.28 9.98L61.28 9.98Q60.94 10.63 60.28 10.98L60.28 10.98L60.28 10.98Q59.05 11.63 56.97 11.63L56.97 11.63L56.83 11.63L56.83 14.43L57.95 14.43L57.95 14.99L53.89 14.99L53.89 14.43L54.73 14.43L54.73 5.75ZM56.97 5.75L56.97 5.75L56.83 5.75L56.83 11.07L56.97 11.07L56.97 11.07Q58.07 11.07 58.80 10.37L58.80 10.37L58.80 10.37Q59.53 9.67 59.53 8.41L59.53 8.41L59.53 8.41Q59.53 7.15 58.80 6.45L58.80 6.45L58.80 6.45Q58.07 5.75 56.97 5.75ZM68.38 7.99L70.48 7.99L70.48 13.44L70.48 13.44Q70.48 13.82 70.66 14.04L70.66 14.04L70.66 14.04Q70.84 14.25 71.22 14.25L71.22 14.25L71.22 14.25Q71.60 14.25 72.09 13.85L72.09 13.85L72.34 14.18L72.34 14.18Q71.22 15.20 70.10 15.20L70.10 15.20L70.10 15.20Q68.77 15.20 68.46 13.96L68.46 13.96L68.46 13.96Q67.73 15.20 66.32 15.20L66.32 15.20L66.32 15.20Q64.71 15.20 63.87 14.16L63.87 14.16L63.87 14.16Q63.03 13.12 63.03 11.50L63.03 11.50L63.03 11.50Q63.03 9.88 63.93 8.83L63.93 8.83L63.93 8.83Q64.83 7.78 66.46 7.78L66.46 7.78L66.46 7.78Q67.70 7.78 68.38 8.78L68.38 8.78L68.38 7.99ZM65.59 9.37L65.59 9.37L65.59 9.37Q65.20 10.15 65.20 11.49L65.20 11.49L65.20 11.49Q65.20 12.84 65.59 13.62L65.59 13.62L65.59 13.62Q65.98 14.41 66.79 14.41L66.79 14.41L66.79 14.41Q67.59 14.41 68.02 13.62L68.02 13.62L68.02 13.62Q68.45 12.82 68.45 11.49L68.45 11.49L68.45 11.49Q68.45 10.16 68.02 9.37L68.02 9.37L68.02 9.37Q67.59 8.58 66.79 8.58L66.79 8.58L66.79 8.58Q65.98 8.58 65.59 9.37ZM76.69 15.20L76.69 15.20L76.69 15.20Q75.03 15.20 74.00 14.13L74.00 14.13L74.00 14.13Q72.97 13.06 72.97 11.49L72.97 11.49L72.97 11.49Q72.97 9.93 74.00 8.86L74.00 8.86L74.00 8.86Q75.03 7.78 76.68 7.78L76.68 7.78L76.68 7.78Q77.60 7.78 78.48 8.32L78.48 8.32L78.48 8.32Q79.37 8.85 79.37 9.76L79.37 9.76L79.37 9.76Q79.37 10.22 79.04 10.55L79.04 10.55L79.04 10.55Q78.71 10.88 78.25 10.88L78.25 10.88L78.25 10.88Q77.78 10.88 77.45 10.55L77.45 10.55L77.45 10.55Q77.13 10.22 77.13 9.80L77.13 9.80L77.13 9.80Q77.13 9.38 77.35 9.09L77.35 9.09L77.35 9.09Q77.57 8.79 77.94 8.68L77.94 8.68L77.94 8.68Q77.55 8.51 77.04 8.51L77.04 8.51L77.04 8.51Q76.10 8.51 75.62 9.34L75.62 9.34L75.62 9.34Q75.14 10.18 75.14 11.46L75.14 11.46L75.14 11.46Q75.14 12.74 75.62 13.54L75.62 13.54L75.62 13.54Q76.10 14.34 77.04 14.34L77.04 14.34L77.04 14.34Q78.30 14.34 79.18 13.29L79.18 13.29L79.58 13.54L79.58 13.54Q79.11 14.29 78.36 14.75L78.36 14.75L78.36 14.75Q77.62 15.20 76.69 15.20ZM83.58 5.14L83.58 5.14L83.58 8.76L83.58 8.76Q84.34 7.78 85.90 7.78L85.90 7.78L85.90 7.78Q86.80 7.78 87.36 8.23L87.36 8.23L87.36 8.23Q87.92 8.68 87.92 9.36L87.92 9.36L87.92 9.36Q87.92 10.04 87.51 10.57L87.51 10.57L87.51 10.57Q87.11 11.10 86.41 11.44L86.41 11.44L87.25 13.62L87.25 13.62Q87.39 13.99 87.53 14.12L87.53 14.12L87.53 14.12Q87.67 14.25 87.92 14.25L87.92 14.25L87.92 14.25Q88.38 14.25 88.87 13.85L88.87 13.85L89.12 14.18L89.12 14.18Q88.00 15.20 86.81 15.20L86.81 15.20L86.81 15.20Q85.61 15.20 85.22 14.20L85.22 14.20L84.17 11.51L84.17 11.51Q84.94 11.33 85.45 10.75L85.45 10.75L85.45 10.75Q85.96 10.18 85.96 9.65L85.96 9.65L85.96 9.65Q85.96 9.11 85.69 8.88L85.69 8.88L85.69 8.88Q85.43 8.64 85.02 8.64L85.02 8.64L85.02 8.64Q84.35 8.64 83.96 9.18L83.96 9.18L83.96 9.18Q83.58 9.72 83.58 10.65L83.58 10.65L83.58 14.99L81.48 14.99L81.48 4.96L81.48 4.96Q80.71 5.15 80.30 5.64L80.30 5.64L79.93 5.21L79.93 5.21Q80.33 4.79 80.95 4.54L80.95 4.54L80.95 4.54Q81.58 4.28 82.19 4.28L82.19 4.28L82.19 4.28Q82.80 4.28 83.19 4.53L83.19 4.53L83.19 4.53Q83.58 4.77 83.58 5.14ZM92.82 11.76L92.82 11.76Q93.73 11.68 94.23 11.07L94.23 11.07L94.23 11.07Q94.72 10.46 94.72 9.84L94.72 9.84L94.72 9.84Q94.72 9.21 94.45 8.88L94.45 8.88L94.45 8.88Q94.18 8.54 93.62 8.54L93.62 8.54L93.62 8.54Q93.07 8.54 92.57 9.32L92.57 9.32L92.57 9.32Q92.06 10.11 92.06 11.42L92.06 11.42L92.06 11.42Q92.06 12.74 92.54 13.54L92.54 13.54L92.54 13.54Q93.02 14.34 93.90 14.34L93.90 14.34L93.90 14.34Q95.24 14.34 96.18 13.29L96.18 13.29L96.57 13.54L96.57 13.54Q96.10 14.29 95.31 14.75L95.31 14.75L95.31 14.75Q94.53 15.20 93.55 15.20L93.55 15.20L93.55 15.20Q91.88 15.20 90.89 14.11L90.89 14.11L90.89 14.11Q89.89 13.01 89.89 11.45L89.89 11.45L89.89 11.45Q89.89 9.90 90.95 8.84L90.95 8.84L90.95 8.84Q92.01 7.78 93.88 7.78L93.88 7.78L93.88 7.78Q95.12 7.78 95.82 8.36L95.82 8.36L95.82 8.36Q96.52 8.93 96.52 9.81L96.52 9.81L96.52 9.81Q96.52 10.70 95.74 11.45L95.74 11.45L95.74 11.45Q94.96 12.19 93.69 12.19L93.69 12.19L93.69 12.19Q93.25 12.19 92.85 12.10L92.85 12.10L92.82 11.76ZM102.84 7.78L102.84 7.78L102.84 7.78Q103.26 7.78 103.26 8.58L103.26 8.58L103.26 13.44L103.26 13.44Q103.26 13.82 103.45 14.04L103.45 14.04L103.45 14.04Q103.63 14.25 104.01 14.25L104.01 14.25L104.01 14.25Q104.38 14.25 104.87 13.85L104.87 13.85L105.13 14.18L105.13 14.18Q104.01 15.20 102.89 15.20L102.89 15.20L102.89 15.20Q101.16 15.20 101.16 13.15L101.16 13.15L101.16 9.21L101.16 9.21Q100.51 9.48 99.57 9.58L99.57 9.58L99.57 9.58Q99.46 10.86 98.83 12.15L98.83 12.15L98.25 11.98L98.25 11.98Q98.64 10.99 98.67 9.62L98.67 9.62L98.67 9.62Q98.14 9.62 97.81 9.31L97.81 9.31L97.81 9.31Q97.48 9.00 97.48 8.55L97.48 8.55L97.48 8.55Q97.48 8.09 97.80 7.78L97.80 7.78L97.80 7.78Q98.11 7.46 98.57 7.46L98.57 7.46L98.57 7.46Q99.02 7.46 99.33 7.78L99.33 7.78L99.33 7.78Q99.64 8.11 99.64 8.61L99.64 8.61L99.90 8.61L99.90 8.61Q101.01 8.61 102.26 7.99L102.26 7.99L102.26 7.99Q102.66 7.78 102.84 7.78ZM107.30 9.14L107.30 9.14L107.30 9.14Q106.96 8.62 106.96 8.22L106.96 8.22L106.96 8.22Q106.96 7.81 107.27 7.50L107.27 7.50L107.27 7.50Q107.59 7.18 108.04 7.18L108.04 7.18L108.04 7.18Q108.49 7.18 108.80 7.50L108.80 7.50L108.80 7.50Q109.12 7.81 109.12 8.25L109.12 8.25L109.12 8.25Q109.12 8.68 108.68 9.17L108.68 9.17L108.68 9.17Q109.83 10.01 110.45 10.81L110.45 10.81L110.45 10.81Q111.06 11.62 111.06 12.68L111.06 12.68L111.06 12.68Q111.06 13.73 110.26 14.47L110.26 14.47L110.26 14.47Q109.47 15.20 108.00 15.20L108.00 15.20L108.00 15.20Q107.32 15.20 106.64 14.91L106.64 14.91L106.64 14.91Q105.97 14.62 105.62 14.18L105.62 14.18L105.94 13.85L105.94 13.85Q106.55 14.34 107.27 14.34L107.27 14.34L107.27 14.34Q107.98 14.34 108.44 13.95L108.44 13.95L108.44 13.95Q108.89 13.57 108.89 12.75L108.89 12.75L108.89 12.75Q108.89 11.47 107.94 10.07L107.94 10.07L105.83 12.71L105.48 12.40L105.48 12.40Q106.54 10.68 107.30 9.14ZM118.06 15.20L118.06 15.20L118.06 15.20Q117.21 15.20 116.65 14.57L116.65 14.57L116.65 14.57Q116.10 13.94 116.10 12.89L116.10 12.89L116.10 12.89Q116.10 11.84 116.75 11.12L116.75 11.12L116.75 11.12Q117.39 10.39 118.58 10.39L118.58 10.39L118.75 10.39L118.75 10.39Q117.75 8.40 117.75 7.36L117.75 7.36L117.75 7.36Q117.75 4.98 120.89 4.98L120.89 4.98L120.89 4.98Q121.87 4.98 122.74 5.43L122.74 5.43L122.74 5.43Q123.61 5.88 123.61 6.50L123.61 6.50L123.61 6.50Q123.61 6.73 123.45 7.04L123.45 7.04L122.78 8.33L122.29 8.18L122.29 7L122.29 7Q122.29 6.37 121.86 6.01L121.86 6.01L121.86 6.01Q121.44 5.64 120.82 5.64L120.82 5.64L120.82 5.64Q120.20 5.64 119.87 5.96L119.87 5.96L119.87 5.96Q119.55 6.27 119.55 6.69L119.55 6.69L119.55 6.69Q119.55 7.27 120.13 8.44L120.13 8.44L120.13 8.44Q120.29 8.75 120.39 8.97L120.39 8.97L120.39 8.97Q120.50 9.20 120.72 9.64L120.72 9.64L120.72 9.64Q120.95 10.08 121.10 10.39L121.10 10.39L123.45 10.39L123.45 11.02L121.41 11.02L122.68 13.62L122.68 13.62Q122.99 14.25 123.49 14.25L123.49 14.25L123.49 14.25Q124.00 14.25 124.49 13.85L124.49 13.85L124.74 14.18L124.74 14.18Q123.62 15.20 122.36 15.20L122.36 15.20L122.36 15.20Q121.69 15.20 121.23 14.87L121.23 14.87L121.23 14.87Q120.76 14.53 120.25 13.41L120.25 13.41L120.25 13.41Q120.04 14.21 119.48 14.71L119.48 14.71L119.48 14.71Q118.92 15.20 118.06 15.20ZM118.28 11.44L118.28 11.44L118.28 11.44Q118.03 11.86 118.03 12.57L118.03 12.57L118.03 12.57Q118.03 13.29 118.24 13.75L118.24 13.75L118.24 13.75Q118.45 14.21 118.90 14.21L118.90 14.21L118.90 14.21Q119.35 14.21 119.59 13.76L119.59 13.76L119.59 13.76Q119.84 13.31 119.85 12.60L119.85 12.60L119.07 11.02L119.01 11.02L119.01 11.02Q118.52 11.02 118.28 11.44ZM130.41 5.75L129.47 5.75L129.47 5.19L132.57 5.19L135.11 13.58L137.52 5.19L140.70 5.19L140.70 5.75L139.75 5.75L140.25 14.43L141.09 14.43L141.09 14.99L137.34 14.99L137.34 14.43L138.14 14.43L137.70 7.50L135.55 14.99L133.43 14.99L131.15 7.52L130.76 14.43L131.57 14.43L131.57 14.99L129.08 14.99L129.08 14.43L129.92 14.43L130.41 5.75ZM143.45 14.13L143.45 14.13L143.45 14.13Q142.42 13.06 142.42 11.49L142.42 11.49L142.42 11.49Q142.42 9.93 143.45 8.86L143.45 8.86L143.45 8.86Q144.48 7.78 146.13 7.78L146.13 7.78L146.13 7.78Q147.78 7.78 148.81 8.86L148.81 8.86L148.81 8.86Q149.84 9.93 149.84 11.49L149.84 11.49L149.84 11.49Q149.84 13.06 148.81 14.13L148.81 14.13L148.81 14.13Q147.78 15.20 146.13 15.20L146.13 15.20L146.13 15.20Q144.48 15.20 143.45 14.13ZM144.98 9.25L144.98 9.25L144.98 9.25Q144.59 10.12 144.59 11.49L144.59 11.49L144.59 11.49Q144.59 12.87 144.98 13.74L144.98 13.74L144.98 13.74Q145.38 14.62 146.15 14.62L146.15 14.62L146.15 14.62Q146.92 14.62 147.31 13.74L147.31 13.74L147.31 13.74Q147.70 12.87 147.70 11.49L147.70 11.49L147.70 11.49Q147.70 10.12 147.31 9.25L147.31 9.25L147.31 9.25Q146.92 8.37 146.15 8.37L146.15 8.37L146.15 8.37Q145.38 8.37 144.98 9.25ZM156.22 9.48L156.22 9.48L156.22 9.48Q155.90 9.17 155.90 8.72L155.90 8.72L155.90 8.72Q155.90 8.27 156.22 7.96L156.22 7.96L156.22 7.96Q156.53 7.64 157.01 7.64L157.01 7.64L157.01 7.64Q157.49 7.64 157.83 8.00L157.83 8.00L157.83 8.00Q158.17 8.36 158.31 8.95L158.31 8.95L158.31 8.95Q158.58 9.97 158.58 10.95L158.58 10.95L158.58 10.95Q158.58 11.93 158.34 12.66L158.34 12.66L158.34 12.66Q158.10 13.38 157.72 13.84L157.72 13.84L157.72 13.84Q157.35 14.29 156.88 14.62L156.88 14.62L156.88 14.62Q156.02 15.20 155.16 15.20L155.16 15.20L155.16 15.20Q153.97 15.20 153.28 14.61L153.28 14.61L153.28 14.61Q152.59 14.01 152.59 12.87L152.59 12.87L152.59 8.46L152.59 8.46Q151.82 8.65 151.41 9.14L151.41 9.14L151.03 8.71L151.03 8.71Q151.44 8.29 152.06 8.04L152.06 8.04L152.06 8.04Q152.68 7.78 153.29 7.78L153.29 7.78L153.29 7.78Q153.90 7.78 154.29 8.03L154.29 8.03L154.29 8.03Q154.69 8.27 154.69 8.64L154.69 8.64L154.69 13.30L154.69 13.30Q154.69 13.75 154.97 13.98L154.97 13.98L154.97 13.98Q155.25 14.21 155.67 14.21L155.67 14.21L155.67 14.21Q156.55 14.21 157.19 13.29L157.19 13.29L157.19 13.29Q157.84 12.38 157.84 11.05L157.84 11.05L157.84 11.05Q157.84 10.37 157.57 9.63L157.57 9.63L157.57 9.63Q157.32 9.80 156.93 9.80L156.93 9.80L156.93 9.80Q156.53 9.80 156.22 9.48ZM163.25 11.76L163.25 11.76Q164.16 11.68 164.66 11.07L164.66 11.07L164.66 11.07Q165.16 10.46 165.16 9.84L165.16 9.84L165.16 9.84Q165.16 9.21 164.88 8.88L164.88 8.88L164.88 8.88Q164.61 8.54 164.06 8.54L164.06 8.54L164.06 8.54Q163.51 8.54 163.00 9.32L163.00 9.32L163.00 9.32Q162.50 10.11 162.50 11.42L162.50 11.42L162.50 11.42Q162.50 12.74 162.97 13.54L162.97 13.54L162.97 13.54Q163.45 14.34 164.33 14.34L164.33 14.34L164.33 14.34Q165.68 14.34 166.61 13.29L166.61 13.29L167.01 13.54L167.01 13.54Q166.53 14.29 165.75 14.75L165.75 14.75L165.75 14.75Q164.96 15.20 163.98 15.20L163.98 15.20L163.98 15.20Q162.32 15.20 161.32 14.11L161.32 14.11L161.32 14.11Q160.33 13.01 160.33 11.45L160.33 11.45L160.33 11.45Q160.33 9.90 161.38 8.84L161.38 8.84L161.38 8.84Q162.44 7.78 164.32 7.78L164.32 7.78L164.32 7.78Q165.55 7.78 166.25 8.36L166.25 8.36L166.25 8.36Q166.95 8.93 166.95 9.81L166.95 9.81L166.95 9.81Q166.95 10.70 166.17 11.45L166.17 11.45L166.17 11.45Q165.40 12.19 164.12 12.19L164.12 12.19L164.12 12.19Q163.69 12.19 163.28 12.10L163.28 12.10L163.25 11.76ZM173.28 7.78L173.28 7.78L173.28 7.78Q173.70 7.78 173.70 8.58L173.70 8.58L173.70 13.44L173.70 13.44Q173.70 13.82 173.88 14.04L173.88 14.04L173.88 14.04Q174.06 14.25 174.44 14.25L174.44 14.25L174.44 14.25Q174.82 14.25 175.31 13.85L175.31 13.85L175.56 14.18L175.56 14.18Q174.44 15.20 173.32 15.20L173.32 15.20L173.32 15.20Q171.60 15.20 171.60 13.15L171.60 13.15L171.60 9.21L171.60 9.21Q170.94 9.48 170.00 9.58L170.00 9.58L170.00 9.58Q169.89 10.86 169.26 12.15L169.26 12.15L168.69 11.98L168.69 11.98Q169.08 10.99 169.11 9.62L169.11 9.62L169.11 9.62Q168.57 9.62 168.24 9.31L168.24 9.31L168.24 9.31Q167.92 9.00 167.92 8.55L167.92 8.55L167.92 8.55Q167.92 8.09 168.23 7.78L168.23 7.78L168.23 7.78Q168.55 7.46 169.00 7.46L169.00 7.46L169.00 7.46Q169.46 7.46 169.76 7.78L169.76 7.78L169.76 7.78Q170.07 8.11 170.07 8.61L170.07 8.61L170.34 8.61L170.34 8.61Q171.44 8.61 172.69 7.99L172.69 7.99L172.69 7.99Q173.10 7.78 173.28 7.78ZM177.73 9.14L177.73 9.14L177.73 9.14Q177.39 8.62 177.39 8.22L177.39 8.22L177.39 8.22Q177.39 7.81 177.71 7.50L177.71 7.50L177.71 7.50Q178.02 7.18 178.47 7.18L178.47 7.18L178.47 7.18Q178.92 7.18 179.23 7.50L179.23 7.50L179.23 7.50Q179.55 7.81 179.55 8.25L179.55 8.25L179.55 8.25Q179.55 8.68 179.12 9.17L179.12 9.17L179.12 9.17Q180.26 10.01 180.88 10.81L180.88 10.81L180.88 10.81Q181.50 11.62 181.50 12.68L181.50 12.68L181.50 12.68Q181.50 13.73 180.70 14.47L180.70 14.47L180.70 14.47Q179.90 15.20 178.43 15.20L178.43 15.20L178.43 15.20Q177.76 15.20 177.08 14.91L177.08 14.91L177.08 14.91Q176.40 14.62 176.05 14.18L176.05 14.18L176.37 13.85L176.37 13.85Q176.99 14.34 177.70 14.34L177.70 14.34L177.70 14.34Q178.42 14.34 178.87 13.95L178.87 13.95L178.87 13.95Q179.33 13.57 179.33 12.75L179.33 12.75L179.33 12.75Q179.33 11.47 178.37 10.07L178.37 10.07L176.26 12.71L175.91 12.40L175.91 12.40Q176.97 10.68 177.73 9.14Z"></path></g><defs data-v-fde0c5aa=""><!----></defs><g data-v-fde0c5aa="" id="43ccf1cf-91f9-477c-9d20-61f1505bcb66" stroke="none" fill="#48288B" transform="matrix(1.2676944538898436,0,0,1.2676944538898436,40,133.51997209943204)"><path d="M10 22h2a2 2 0 0 0 4 0h2v-8h-8v8zm4-1a1 1 0 1 1 0 2 1 1 0 0 1 0-2zM22 16h-3v6h1a2 2 0 0 0 4 0v-3l-2-3zm-2 3v-2h1.465l1.333 2H20zm2 4a1 1 0 1 1 0-2 1 1 0 0 1 0 2z"></path><path d="M10 2L0 10h2v12h6V12h10v-2h2L10 2zM6 17H4v-3h2v3z"></path></g><defs data-v-fde0c5aa=""><!----></defs><g data-v-fde0c5aa="" id="4b50b292-fba7-4e2f-834d-a2af7db13404" fill="#000000" transform="matrix(0.4024967870448599,0,0,0.4024967870448599,83.29586791238543,155.93596121467417)"><path d="M0.71 3.64L0.32 3.64L0.33 3.08L3.55 3.08L3.55 3.08Q4.69 3.08 5.29 3.21L5.29 3.21L5.29 3.21Q5.93 3.37 6.40 3.75L6.40 3.75L6.40 3.75Q7.40 4.57 7.40 5.71L7.40 5.71L7.40 5.71Q7.40 6.43 6.93 7.04L6.93 7.04L6.93 7.04Q6.44 7.66 5.41 7.92L5.41 7.92L8.09 11.49L8.09 11.49Q8.40 11.87 8.70 11.87L8.70 11.87L9.30 11.87L9.32 12.41L7.29 12.41L4.30 8.10L4.13 8.10L4.13 8.10Q4.09 8.10 4.03 8.11L4.03 8.11L4.03 8.11Q3.98 8.11 3.96 8.11L3.96 8.11L3.96 8.11Q3.08 8.11 2.69 8.03L2.69 8.03L2.69 11.46L2.69 11.46Q2.69 11.76 2.83 11.81L2.83 11.81L2.83 11.81Q2.95 11.87 3.66 11.87L3.66 11.87L4.37 11.87L4.34 12.41L0.62 12.41L0.62 11.87L0.94 11.87L0.94 11.87Q1.40 11.87 1.47 11.81L1.47 11.81L1.47 11.81Q1.55 11.74 1.55 11.46L1.55 11.46L1.55 4.14L1.55 4.14Q1.55 3.82 1.36 3.73L1.36 3.73L1.36 3.73Q1.13 3.64 0.71 3.64L0.71 3.64ZM2.69 4.28L2.69 7.57L2.69 7.57Q2.87 7.70 3.58 7.71L3.58 7.71L3.58 7.71Q4.85 7.71 5.43 7.27L5.43 7.27L5.43 7.27Q6.02 6.84 6.02 5.92L6.02 5.92L6.02 5.92Q6.02 4.92 5.25 4.27L5.25 4.27L5.25 4.27Q4.49 3.64 3.11 3.64L3.11 3.64L3.11 3.64Q2.86 3.64 2.78 3.75L2.78 3.75L2.78 3.75Q2.69 3.84 2.69 4.28L2.69 4.28ZM17.09 3.64L17.08 3.08L24.29 3.08L24.29 3.08Q24.30 4.14 24.36 5.28L24.36 5.28L23.81 5.30L23.81 5.30Q23.80 4.66 23.74 4.25L23.74 4.25L23.74 4.25Q23.70 3.89 23.65 3.80L23.65 3.80L23.65 3.80Q23.59 3.71 23.47 3.69L23.47 3.69L23.47 3.69Q23.38 3.68 22.79 3.68L22.79 3.68L20.41 3.68L20.41 3.68Q19.87 3.68 19.72 3.77L19.72 3.77L19.72 3.77Q19.60 3.86 19.60 4.33L19.60 4.33L19.60 6.28L19.60 6.28Q19.60 6.69 19.65 6.76L19.65 6.76L19.65 6.76Q19.72 6.84 20.06 6.84L20.06 6.84L22.18 6.84L22.18 6.84Q22.54 6.84 22.62 6.73L22.62 6.73L22.62 6.73Q22.70 6.63 22.71 6.14L22.71 6.14L22.71 5.61L23.22 5.63L23.22 8.97L22.71 8.97L22.71 8.24L22.71 8.24Q22.71 7.66 22.63 7.57L22.63 7.57L22.63 7.57Q22.55 7.46 22.20 7.46L22.20 7.46L20.10 7.46L20.10 7.46Q19.77 7.46 19.68 7.54L19.68 7.54L19.68 7.54Q19.60 7.63 19.60 7.89L19.60 7.89L19.60 11.20L19.60 11.20Q19.60 11.57 19.68 11.67L19.68 11.67L19.68 11.67Q19.77 11.77 20.04 11.77L20.04 11.77L20.04 11.77Q22.96 11.75 23.49 11.69L23.49 11.69L23.49 11.69Q24.01 11.63 24.09 11.38L24.09 11.38L24.10 11.36L24.10 11.35L24.33 10.17L24.81 10.25L24.46 12.41L17.36 12.41L17.36 11.87L17.73 11.87L17.73 11.87Q18.29 11.87 18.37 11.80L18.37 11.80L18.37 11.80Q18.46 11.72 18.46 11.33L18.46 11.33L18.46 4.24L18.46 4.24Q18.46 3.82 18.31 3.73L18.31 3.73L18.31 3.73Q18.14 3.64 17.49 3.64L17.49 3.64L17.09 3.64ZM32.66 10.04L32.66 10.04L33.15 9.98L33.33 10.85L33.33 10.85Q33.44 11.33 33.51 11.41L33.51 11.41L33.51 11.41Q33.58 11.49 33.99 11.64L33.99 11.64L33.99 11.64Q34.83 11.95 35.72 11.95L35.72 11.95L35.72 11.95Q36.51 11.95 37.05 11.49L37.05 11.49L37.05 11.49Q37.58 11.04 37.58 10.26L37.58 10.26L37.58 10.26Q37.58 9.65 37.13 9.21L37.13 9.21L37.13 9.21Q36.65 8.76 35.79 8.30L35.79 8.30L35.22 7.98L35.22 7.98Q34.47 7.55 34.24 7.36L34.24 7.36L34.24 7.36Q33.88 7.08 33.57 6.59L33.57 6.59L33.57 6.59Q33.26 6.10 33.26 5.46L33.26 5.46L33.26 5.46Q33.26 4.39 34.10 3.68L34.10 3.68L34.10 3.68Q34.94 2.97 36.05 2.97L36.05 2.97L36.05 2.97Q36.33 2.97 36.67 3.04L36.67 3.04L36.67 3.04Q36.87 3.08 37.21 3.17L37.21 3.17L37.45 3.25L37.45 3.25Q37.54 3.25 37.58 3.16L37.58 3.16L37.58 3.16Q37.64 3.05 37.64 2.98L37.64 2.98L37.65 2.88L38.13 2.85L38.34 5.41L37.84 5.43L37.71 4.18L37.71 4.18Q36.97 3.62 35.81 3.62L35.81 3.62L35.81 3.62Q35.16 3.62 34.66 4.05L34.66 4.05L34.66 4.05Q34.18 4.47 34.18 5.12L34.18 5.12L34.18 5.12Q34.18 5.72 34.63 6.17L34.63 6.17L34.63 6.17Q35.06 6.60 35.93 7.08L35.93 7.08L36.70 7.50L36.70 7.50Q37.65 8.03 38.19 8.59L38.19 8.59L38.19 8.59Q38.72 9.15 38.72 9.92L38.72 9.92L38.72 9.92Q38.72 10.99 37.86 11.76L37.86 11.76L37.86 11.76Q37.00 12.54 35.54 12.54L35.54 12.54L35.54 12.54Q34.98 12.54 34.48 12.41L34.48 12.41L34.48 12.41Q33.97 12.29 33.92 12.29L33.92 12.29L33.92 12.29Q33.67 12.29 33.67 12.58L33.67 12.58L33.68 12.76L33.20 12.80L33.20 12.80Q33.14 12.41 32.66 10.04ZM47.49 3.64L46.90 3.64L46.92 3.08L50.43 3.08L50.43 3.64L50.20 3.64L50.20 3.64Q49.65 3.64 49.48 3.73L49.48 3.73L49.48 3.73Q49.34 3.81 49.34 4.28L49.34 4.28L49.34 11.22L49.34 11.22Q49.34 11.68 49.45 11.77L49.45 11.77L49.45 11.77Q49.56 11.87 50.09 11.87L50.09 11.87L50.64 11.87L50.65 12.41L47.07 12.41L47.06 11.87L47.42 11.87L47.42 11.87Q47.98 11.87 48.09 11.77L48.09 11.77L48.09 11.77Q48.21 11.67 48.21 11.25L48.21 11.25L48.21 4.14L48.21 4.14Q48.21 3.77 48.10 3.71L48.10 3.71L48.10 3.71Q48.00 3.64 47.49 3.64L47.49 3.64ZM58.43 3.64L58.39 3.08L62.17 3.08L62.17 3.08Q63.49 3.08 64.36 3.19L64.36 3.19L64.36 3.19Q65.18 3.29 65.87 3.69L65.87 3.69L65.87 3.69Q66.82 4.27 67.33 5.24L67.33 5.24L67.33 5.24Q67.82 6.21 67.82 7.39L67.82 7.39L67.82 7.39Q67.82 8.05 67.68 8.65L67.68 8.65L67.68 8.65Q67.52 9.29 67.13 9.98L67.13 9.98L67.13 9.98Q66.70 10.73 66.14 11.21L66.14 11.21L66.14 11.21Q65.51 11.76 64.54 12.08L64.54 12.08L64.54 12.08Q63.53 12.41 62.26 12.41L62.26 12.41L58.65 12.41L58.63 11.87L59.01 11.87L59.01 11.87Q59.53 11.87 59.63 11.79L59.63 11.79L59.63 11.79Q59.74 11.70 59.74 11.25L59.74 11.25L59.74 4.14L59.74 4.14Q59.74 3.77 59.64 3.71L59.64 3.71L59.64 3.71Q59.53 3.64 59.02 3.64L59.02 3.64L58.43 3.64ZM60.87 4.39L60.87 11.22L60.87 11.22Q60.87 11.67 61.04 11.77L61.04 11.77L61.04 11.77Q61.20 11.87 62.06 11.87L62.06 11.87L62.06 11.87Q63.12 11.87 63.91 11.61L63.91 11.61L63.91 11.61Q64.76 11.35 65.20 10.99L65.20 10.99L65.20 10.99Q65.69 10.58 66.00 10.05L66.00 10.05L66.00 10.05Q66.30 9.52 66.43 8.96L66.43 8.96L66.43 8.96Q66.55 8.41 66.55 7.82L66.55 7.82L66.55 7.82Q66.55 7.03 66.29 6.34L66.29 6.34L66.29 6.34Q66.02 5.65 65.50 5.05L65.50 5.05L65.50 5.05Q64.96 4.46 64.05 4.09L64.05 4.09L64.05 4.09Q63.13 3.73 61.97 3.73L61.97 3.73L61.45 3.73L61.45 3.73Q61.09 3.73 60.98 3.85L60.98 3.85L60.98 3.85Q60.87 3.99 60.87 4.39L60.87 4.39ZM75.80 3.64L75.79 3.08L83.00 3.08L83.00 3.08Q83.02 4.14 83.07 5.28L83.07 5.28L82.52 5.30L82.52 5.30Q82.51 4.66 82.46 4.25L82.46 4.25L82.46 4.25Q82.41 3.89 82.36 3.80L82.36 3.80L82.36 3.80Q82.30 3.71 82.19 3.69L82.19 3.69L82.19 3.69Q82.09 3.68 81.50 3.68L81.50 3.68L79.13 3.68L79.13 3.68Q78.58 3.68 78.44 3.77L78.44 3.77L78.44 3.77Q78.31 3.86 78.31 4.33L78.31 4.33L78.31 6.28L78.31 6.28Q78.31 6.69 78.37 6.76L78.37 6.76L78.37 6.76Q78.44 6.84 78.78 6.84L78.78 6.84L80.89 6.84L80.89 6.84Q81.25 6.84 81.33 6.73L81.33 6.73L81.33 6.73Q81.42 6.63 81.42 6.14L81.42 6.14L81.42 5.61L81.94 5.63L81.94 8.97L81.42 8.97L81.42 8.24L81.42 8.24Q81.42 7.66 81.35 7.57L81.35 7.57L81.35 7.57Q81.27 7.46 80.92 7.46L80.92 7.46L78.82 7.46L78.82 7.46Q78.48 7.46 78.40 7.54L78.40 7.54L78.40 7.54Q78.31 7.63 78.31 7.89L78.31 7.89L78.31 11.20L78.31 11.20Q78.31 11.57 78.40 11.67L78.40 11.67L78.40 11.67Q78.48 11.77 78.76 11.77L78.76 11.77L78.76 11.77Q81.68 11.75 82.20 11.69L82.20 11.69L82.20 11.69Q82.72 11.63 82.80 11.38L82.80 11.38L82.81 11.36L82.82 11.35L83.04 10.17L83.52 10.25L83.17 12.41L76.07 12.41L76.07 11.87L76.44 11.87L76.44 11.87Q77 11.87 77.08 11.80L77.08 11.80L77.08 11.80Q77.18 11.72 77.18 11.33L77.18 11.33L77.18 4.24L77.18 4.24Q77.18 3.82 77.03 3.73L77.03 3.73L77.03 3.73Q76.86 3.64 76.20 3.64L76.20 3.64L75.80 3.64ZM91.41 3.64L91.40 3.08L93.57 3.08L99.31 10.48L99.31 4.14L99.31 4.14Q99.31 3.81 99.15 3.72L99.15 3.72L99.15 3.72Q99.00 3.64 98.54 3.64L98.54 3.64L98.05 3.64L98.08 3.08L101.06 3.08L101.06 3.64L100.73 3.64L100.73 3.64Q100.27 3.64 100.12 3.75L100.12 3.75L100.12 3.75Q99.97 3.86 99.97 4.25L99.97 4.25L99.97 12.32L99.97 12.47L99.97 12.47Q99.97 12.52 99.96 12.57L99.96 12.57L99.96 12.57Q99.94 12.61 99.91 12.64L99.91 12.64L99.91 12.64Q99.89 12.65 99.84 12.65L99.84 12.65L99.65 12.65L99.59 12.65L99.56 12.65L99.53 12.64L99.53 12.64Q99.50 12.64 99.49 12.63L99.49 12.63L99.49 12.63Q99.48 12.61 99.48 12.60L99.48 12.60L99.48 12.60Q99.48 12.58 99.46 12.57L99.46 12.57L99.46 12.57Q99.44 12.54 99.41 12.50L99.41 12.50L99.41 12.50Q99.39 12.48 99.37 12.45L99.37 12.45L99.37 12.45Q99.35 12.41 99.34 12.40L99.34 12.40L93.24 4.56L93.30 11.22L93.30 11.22Q93.30 11.67 93.47 11.77L93.47 11.77L93.47 11.77Q93.63 11.87 94.34 11.87L94.34 11.87L94.58 11.87L94.58 12.41L91.64 12.41L91.64 11.87L92.06 11.87L92.06 11.87Q92.44 11.87 92.54 11.76L92.54 11.76L92.54 11.76Q92.64 11.66 92.65 11.25L92.65 11.25L92.65 3.80L92.50 3.64L91.41 3.64ZM109.07 5.35L108.58 5.33L108.58 5.33Q108.70 4.17 108.78 3.08L108.78 3.08L116.86 3.08L116.86 3.08Q116.78 4.13 116.75 4.53L116.75 4.53L116.75 4.53Q116.71 5.26 116.69 5.32L116.69 5.32L116.19 5.30L116.19 5.30Q116.27 4.34 116.27 4.16L116.27 4.16L116.27 4.16Q116.27 3.88 116.13 3.79L116.13 3.79L116.13 3.79Q115.96 3.69 115.55 3.69L115.55 3.69L113.95 3.69L113.95 3.69Q113.44 3.69 113.32 3.79L113.32 3.79L113.32 3.79Q113.22 3.87 113.22 4.36L113.22 4.36L113.22 11.22L113.22 11.22Q113.22 11.66 113.36 11.76L113.36 11.76L113.36 11.76Q113.52 11.87 114.03 11.87L114.03 11.87L114.59 11.87L114.60 12.41L110.91 12.40L110.91 11.87L111.13 11.87L111.13 11.87Q111.80 11.87 111.95 11.79L111.95 11.79L111.95 11.79Q112.09 11.70 112.09 11.28L112.09 11.28L112.09 4.48L112.09 4.48Q112.09 3.92 111.99 3.80L111.99 3.80L111.99 3.80Q111.89 3.69 111.47 3.69L111.47 3.69L110.00 3.69L110.00 3.69Q109.81 3.69 109.74 3.71L109.74 3.71L109.74 3.71Q109.68 3.72 109.57 3.72L109.57 3.72L109.57 3.72Q109.54 3.72 109.42 3.79L109.42 3.79L109.42 3.79Q109.34 3.84 109.31 3.86L109.31 3.86L109.31 3.86Q109.29 3.88 109.25 3.99L109.25 3.99L109.25 3.99Q109.22 4.05 109.19 4.14L109.19 4.14L109.19 4.14Q109.16 4.21 109.14 4.36L109.14 4.36L109.14 4.36Q109.12 4.59 109.12 4.61L109.12 4.61L109.12 4.61Q109.12 4.80 109.10 4.95L109.10 4.95L109.10 4.95Q109.10 5.02 109.09 5.15L109.09 5.15L109.09 5.15Q109.09 5.29 109.07 5.35L109.07 5.35ZM125.19 3.64L124.60 3.64L124.61 3.08L128.13 3.08L128.13 3.64L127.89 3.64L127.89 3.64Q127.35 3.64 127.18 3.73L127.18 3.73L127.18 3.73Q127.04 3.81 127.04 4.28L127.04 4.28L127.04 11.22L127.04 11.22Q127.04 11.68 127.15 11.77L127.15 11.77L127.15 11.77Q127.26 11.87 127.79 11.87L127.79 11.87L128.34 11.87L128.35 12.41L124.77 12.41L124.76 11.87L125.12 11.87L125.12 11.87Q125.68 11.87 125.79 11.77L125.79 11.77L125.79 11.77Q125.90 11.67 125.90 11.25L125.90 11.25L125.90 4.14L125.90 4.14Q125.90 3.77 125.80 3.71L125.80 3.71L125.80 3.71Q125.69 3.64 125.19 3.64L125.19 3.64ZM136.10 12.41L136.09 11.87L136.26 11.87L136.26 11.87Q136.65 11.87 136.78 11.73L136.78 11.73L136.78 11.73Q136.90 11.57 137.24 10.83L137.24 10.83L138.15 8.82L138.72 7.53L138.72 7.53Q138.99 6.97 139.03 6.86L139.03 6.86L139.03 6.86Q139.10 6.70 139.15 6.60L139.15 6.60L139.15 6.60Q139.20 6.51 139.21 6.45L139.21 6.45L139.31 6.21L140.74 2.74L141.03 2.74L141.03 2.74Q141.89 4.98 144.07 10.25L144.07 10.25L144.07 10.25Q144.53 11.34 144.72 11.64L144.72 11.64L144.72 11.64Q144.85 11.87 145.29 11.87L145.29 11.87L145.50 11.87L145.49 12.41L142.30 12.41L142.31 11.87L142.73 11.87L142.73 11.87Q143.34 11.87 143.34 11.70L143.34 11.70L143.34 11.70Q143.34 11.63 143.21 11.27L143.21 11.27L142.17 8.72L138.92 8.72L137.81 11.18L137.81 11.18Q137.68 11.50 137.68 11.63L137.68 11.63L137.68 11.63Q137.68 11.79 137.77 11.83L137.77 11.83L137.77 11.83Q137.87 11.87 138.25 11.87L138.25 11.87L138.82 11.87L138.82 12.41L136.10 12.41ZM140.60 4.79L139.19 8.10L141.93 8.10L140.60 4.79ZM153.73 3.64L153.23 3.64L153.25 3.08L156.84 3.08L156.84 3.64L156.20 3.64L156.20 3.64Q155.83 3.64 155.71 3.72L155.71 3.72L155.71 3.72Q155.60 3.80 155.60 4.16L155.60 4.16L155.60 11.22L155.60 11.22Q155.60 11.57 155.69 11.67L155.69 11.67L155.69 11.67Q155.77 11.77 156.06 11.77L156.06 11.77L156.06 11.77Q158.94 11.74 159.59 11.63L159.59 11.63L159.59 11.63Q159.80 11.61 159.89 11.39L159.89 11.39L159.89 11.39Q159.97 11.17 160.17 10.05L160.17 10.05L160.66 10.08L160.19 12.41L153.43 12.41L153.42 11.87L153.81 11.87L153.81 11.87Q154.31 11.87 154.38 11.80L154.38 11.80L154.38 11.80Q154.46 11.72 154.47 11.33L154.47 11.33L154.47 4.09L154.47 4.09Q154.47 3.80 154.31 3.72L154.31 3.72L154.31 3.72Q154.16 3.64 153.73 3.64L153.73 3.64ZM178.29 3.64L177.91 3.64L177.92 3.08L181.14 3.08L181.14 3.08Q182.27 3.08 182.88 3.21L182.88 3.21L182.88 3.21Q183.52 3.37 183.98 3.75L183.98 3.75L183.98 3.75Q184.99 4.57 184.99 5.71L184.99 5.71L184.99 5.71Q184.99 6.43 184.52 7.04L184.52 7.04L184.52 7.04Q184.02 7.66 182.99 7.92L182.99 7.92L185.68 11.49L185.68 11.49Q185.99 11.87 186.28 11.87L186.28 11.87L186.88 11.87L186.91 12.41L184.88 12.41L181.88 8.10L181.71 8.10L181.71 8.10Q181.67 8.10 181.62 8.11L181.62 8.11L181.62 8.11Q181.56 8.11 181.55 8.11L181.55 8.11L181.55 8.11Q180.67 8.11 180.27 8.03L180.27 8.03L180.27 11.46L180.27 11.46Q180.27 11.76 180.41 11.81L180.41 11.81L180.41 11.81Q180.54 11.87 181.24 11.87L181.24 11.87L181.95 11.87L181.92 12.41L178.20 12.41L178.20 11.87L178.52 11.87L178.52 11.87Q178.99 11.87 179.05 11.81L179.05 11.81L179.05 11.81Q179.14 11.74 179.14 11.46L179.14 11.46L179.14 4.14L179.14 4.14Q179.14 3.82 178.94 3.73L178.94 3.73L178.94 3.73Q178.72 3.64 178.29 3.64L178.29 3.64ZM180.27 4.28L180.27 7.57L180.27 7.57Q180.46 7.70 181.17 7.71L181.17 7.71L181.17 7.71Q182.44 7.71 183.02 7.27L183.02 7.27L183.02 7.27Q183.61 6.84 183.61 5.92L183.61 5.92L183.61 5.92Q183.61 4.92 182.83 4.27L182.83 4.27L182.83 4.27Q182.08 3.64 180.69 3.64L180.69 3.64L180.69 3.64Q180.44 3.64 180.36 3.75L180.36 3.75L180.36 3.75Q180.28 3.84 180.27 4.28L180.27 4.28ZM194.67 3.64L194.66 3.08L201.87 3.08L201.87 3.08Q201.89 4.14 201.94 5.28L201.94 5.28L201.39 5.30L201.39 5.30Q201.38 4.66 201.33 4.25L201.33 4.25L201.33 4.25Q201.28 3.89 201.23 3.80L201.23 3.80L201.23 3.80Q201.17 3.71 201.06 3.69L201.06 3.69L201.06 3.69Q200.96 3.68 200.38 3.68L200.38 3.68L198.00 3.68L198.00 3.68Q197.45 3.68 197.31 3.77L197.31 3.77L197.31 3.77Q197.18 3.86 197.18 4.33L197.18 4.33L197.18 6.28L197.18 6.28Q197.18 6.69 197.24 6.76L197.24 6.76L197.24 6.76Q197.31 6.84 197.65 6.84L197.65 6.84L199.76 6.84L199.76 6.84Q200.12 6.84 200.20 6.73L200.20 6.73L200.20 6.73Q200.29 6.63 200.29 6.14L200.29 6.14L200.29 5.61L200.81 5.63L200.81 8.97L200.29 8.97L200.29 8.24L200.29 8.24Q200.29 7.66 200.22 7.57L200.22 7.57L200.22 7.57Q200.14 7.46 199.79 7.46L199.79 7.46L197.69 7.46L197.69 7.46Q197.35 7.46 197.27 7.54L197.27 7.54L197.27 7.54Q197.18 7.63 197.18 7.89L197.18 7.89L197.18 11.20L197.18 11.20Q197.18 11.57 197.27 11.67L197.27 11.67L197.27 11.67Q197.35 11.77 197.63 11.77L197.63 11.77L197.63 11.77Q200.55 11.75 201.07 11.69L201.07 11.69L201.07 11.69Q201.59 11.63 201.67 11.38L201.67 11.38L201.68 11.36L201.69 11.35L201.91 10.17L202.39 10.25L202.04 12.41L194.94 12.41L194.94 11.87L195.31 11.87L195.31 11.87Q195.87 11.87 195.95 11.80L195.95 11.80L195.95 11.80Q196.05 11.72 196.05 11.33L196.05 11.33L196.05 4.24L196.05 4.24Q196.05 3.82 195.90 3.73L195.90 3.73L195.90 3.73Q195.73 3.64 195.07 3.64L195.07 3.64L194.67 3.64ZM210.76 3.64L210.27 3.64L210.28 3.08L213.87 3.08L213.87 3.64L213.23 3.64L213.23 3.64Q212.86 3.64 212.74 3.72L212.74 3.72L212.74 3.72Q212.63 3.80 212.63 4.16L212.63 4.16L212.63 11.22L212.63 11.22Q212.63 11.57 212.72 11.67L212.72 11.67L212.72 11.67Q212.80 11.77 213.10 11.77L213.10 11.77L213.10 11.77Q215.97 11.74 216.62 11.63L216.62 11.63L216.62 11.63Q216.84 11.61 216.92 11.39L216.92 11.39L216.92 11.39Q217 11.17 217.20 10.05L217.20 10.05L217.69 10.08L217.23 12.41L210.46 12.41L210.45 11.87L210.84 11.87L210.84 11.87Q211.35 11.87 211.42 11.80L211.42 11.80L211.42 11.80Q211.50 11.72 211.50 11.33L211.50 11.33L211.50 4.09L211.50 4.09Q211.50 3.80 211.35 3.72L211.35 3.72L211.35 3.72Q211.20 3.64 210.76 3.64L210.76 3.64ZM225.80 7.83L225.80 7.83L225.80 7.83Q225.80 6.62 226.21 5.68L226.21 5.68L226.21 5.68Q226.63 4.72 227.32 4.12L227.32 4.12L227.32 4.12Q228.01 3.51 228.87 3.19L228.87 3.19L228.87 3.19Q229.71 2.88 230.66 2.88L230.66 2.88L230.66 2.88Q231.92 2.88 232.97 3.40L232.97 3.40L232.97 3.40Q234.05 3.93 234.76 5.07L234.76 5.07L234.76 5.07Q235.46 6.17 235.46 7.75L235.46 7.75L235.46 7.75Q235.46 8.70 235.16 9.54L235.16 9.54L235.16 9.54Q234.85 10.38 234.24 11.10L234.24 11.10L234.24 11.10Q233.64 11.81 232.70 12.22L232.70 12.22L232.70 12.22Q231.74 12.63 230.55 12.64L230.55 12.64L230.55 12.64Q229.41 12.64 228.48 12.23L228.48 12.23L228.48 12.23Q227.54 11.83 226.98 11.14L226.98 11.14L226.98 11.14Q226.41 10.45 226.11 9.60L226.11 9.60L226.11 9.60Q225.80 8.72 225.80 7.83ZM227.06 7.38L227.06 7.38L227.06 7.38Q227.06 8.52 227.49 9.60L227.49 9.60L227.49 9.60Q227.90 10.64 228.83 11.33L228.83 11.33L228.83 11.33Q229.74 12.03 230.92 12.04L230.92 12.04L230.92 12.04Q232.30 12.04 233.24 11.01L233.24 11.01L233.24 11.01Q234.19 9.97 234.19 8.10L234.19 8.10L234.19 8.10Q234.19 5.99 233.02 4.72L233.02 4.72L233.02 4.72Q231.88 3.46 230.36 3.45L230.36 3.45L230.36 3.45Q229.84 3.45 229.30 3.65L229.30 3.65L229.30 3.65Q228.76 3.85 228.25 4.25L228.25 4.25L228.25 4.25Q227.71 4.68 227.38 5.48L227.38 5.48L227.38 5.48Q227.06 6.27 227.06 7.38ZM243.96 8.02L243.96 8.02L243.96 8.02Q243.96 6.86 244.43 5.83L244.43 5.83L244.43 5.83Q244.90 4.85 245.65 4.27L245.65 4.27L245.65 4.27Q246.39 3.69 247.29 3.37L247.29 3.37L247.29 3.37Q248.19 3.05 249.03 3.05L249.03 3.05L249.03 3.05Q249.89 3.05 250.56 3.16L250.56 3.16L250.56 3.16Q251.19 3.26 251.49 3.37L251.49 3.37L251.49 3.37Q251.79 3.48 251.83 3.48L251.83 3.48L251.83 3.48Q252 3.48 252.02 3.41L252.02 3.41L252.02 3.41Q252.05 3.33 252.05 3.09L252.05 3.09L252.05 2.97L252.58 2.97L252.58 2.97Q252.62 4.30 252.75 5.64L252.75 5.64L252.25 5.65L252.25 5.65Q252.22 5.40 252.21 5.26L252.21 5.26L252.21 5.26Q252.21 5.20 252.20 5.13L252.20 5.13L252.20 5.13Q252.19 5.07 252.18 5.02L252.18 5.02L252.18 5.02Q252.18 4.98 252.18 4.95L252.18 4.95L252.18 4.95Q252.15 4.84 252.15 4.74L252.15 4.74L252.15 4.74Q252.15 4.68 252.11 4.59L252.11 4.59L252.11 4.59Q252.11 4.57 252.08 4.55L252.08 4.55L252.08 4.55Q252.05 4.52 252.05 4.50L252.05 4.50L252.05 4.50Q252.02 4.44 251.95 4.41L251.95 4.41L251.95 4.41Q251.91 4.38 251.88 4.37L251.88 4.37L251.88 4.37Q251.86 4.36 251.83 4.35L251.83 4.35L251.83 4.35Q251.82 4.35 251.79 4.33L251.79 4.33L251.79 4.33Q251.77 4.31 251.73 4.29L251.73 4.29L251.73 4.29Q251.69 4.27 251.64 4.25L251.64 4.25L251.64 4.25Q251.42 4.16 251.39 4.14L251.39 4.14L251.39 4.14Q251.04 3.96 250.40 3.83L250.40 3.83L250.40 3.83Q249.73 3.71 249.07 3.71L249.07 3.71L249.07 3.71Q247.34 3.71 246.25 4.84L246.25 4.84L246.25 4.84Q245.14 5.99 245.15 7.62L245.15 7.62L245.15 7.62Q245.15 9.35 246.37 10.69L246.37 10.69L246.37 10.69Q247.57 12.02 249.39 12.02L249.39 12.02L249.39 12.02Q250.39 12.02 251.34 11.49L251.34 11.49L251.34 11.49Q252.29 10.94 252.31 10.58L252.31 10.58L252.36 9.41L252.85 9.41L252.77 11.45L252.77 11.45Q252.70 11.49 252.57 11.57L252.57 11.57L252.57 11.57Q252.51 11.60 252.05 11.85L252.05 11.85L252.05 11.85Q251.67 12.05 251.23 12.23L251.23 12.23L251.23 12.23Q250.87 12.39 250.22 12.51L250.22 12.51L250.22 12.51Q249.61 12.63 249.04 12.64L249.04 12.64L249.04 12.64Q246.66 12.64 245.30 11.39L245.30 11.39L245.30 11.39Q243.96 10.14 243.96 8.02ZM260.89 12.41L260.88 11.87L261.05 11.87L261.05 11.87Q261.44 11.87 261.57 11.73L261.57 11.73L261.57 11.73Q261.69 11.57 262.03 10.83L262.03 10.83L262.94 8.82L263.51 7.53L263.51 7.53Q263.78 6.97 263.82 6.86L263.82 6.86L263.82 6.86Q263.89 6.70 263.94 6.60L263.94 6.60L263.94 6.60Q263.99 6.51 264.00 6.45L264.00 6.45L264.10 6.21L265.53 2.74L265.82 2.74L265.82 2.74Q266.68 4.98 268.86 10.25L268.86 10.25L268.86 10.25Q269.32 11.34 269.51 11.64L269.51 11.64L269.51 11.64Q269.64 11.87 270.08 11.87L270.08 11.87L270.29 11.87L270.28 12.41L267.09 12.41L267.10 11.87L267.52 11.87L267.52 11.87Q268.13 11.87 268.13 11.70L268.13 11.70L268.13 11.70Q268.13 11.63 268.00 11.27L268.00 11.27L266.96 8.72L263.71 8.72L262.60 11.18L262.60 11.18Q262.47 11.50 262.47 11.63L262.47 11.63L262.47 11.63Q262.47 11.79 262.56 11.83L262.56 11.83L262.56 11.83Q262.66 11.87 263.04 11.87L263.04 11.87L263.61 11.87L263.61 12.41L260.89 12.41ZM265.39 4.79L263.98 8.10L266.72 8.10L265.39 4.79ZM278.30 5.35L277.81 5.33L277.81 5.33Q277.93 4.17 278.01 3.08L278.01 3.08L286.09 3.08L286.09 3.08Q286.01 4.13 285.98 4.53L285.98 4.53L285.98 4.53Q285.94 5.26 285.92 5.32L285.92 5.32L285.42 5.30L285.42 5.30Q285.50 4.34 285.50 4.16L285.50 4.16L285.50 4.16Q285.50 3.88 285.36 3.79L285.36 3.79L285.36 3.79Q285.19 3.69 284.79 3.69L284.79 3.69L283.18 3.69L283.18 3.69Q282.67 3.69 282.55 3.79L282.55 3.79L282.55 3.79Q282.45 3.87 282.45 4.36L282.45 4.36L282.45 11.22L282.45 11.22Q282.45 11.66 282.59 11.76L282.59 11.76L282.59 11.76Q282.75 11.87 283.26 11.87L283.26 11.87L283.82 11.87L283.83 12.41L280.14 12.40L280.14 11.87L280.36 11.87L280.36 11.87Q281.03 11.87 281.18 11.79L281.18 11.79L281.18 11.79Q281.32 11.70 281.32 11.28L281.32 11.28L281.32 4.48L281.32 4.48Q281.32 3.92 281.22 3.80L281.22 3.80L281.22 3.80Q281.12 3.69 280.70 3.69L280.70 3.69L279.23 3.69L279.23 3.69Q279.04 3.69 278.97 3.71L278.97 3.71L278.97 3.71Q278.91 3.72 278.80 3.72L278.80 3.72L278.80 3.72Q278.77 3.72 278.65 3.79L278.65 3.79L278.65 3.79Q278.57 3.84 278.54 3.86L278.54 3.86L278.54 3.86Q278.52 3.88 278.48 3.99L278.48 3.99L278.48 3.99Q278.45 4.05 278.42 4.14L278.42 4.14L278.42 4.14Q278.39 4.21 278.37 4.36L278.37 4.36L278.37 4.36Q278.35 4.59 278.35 4.61L278.35 4.61L278.35 4.61Q278.35 4.80 278.33 4.95L278.33 4.95L278.33 4.95Q278.33 5.02 278.33 5.15L278.33 5.15L278.33 5.15Q278.32 5.29 278.30 5.35L278.30 5.35ZM294.42 3.64L293.83 3.64L293.84 3.08L297.36 3.08L297.36 3.64L297.12 3.64L297.12 3.64Q296.58 3.64 296.41 3.73L296.41 3.73L296.41 3.73Q296.27 3.81 296.27 4.28L296.27 4.28L296.27 11.22L296.27 11.22Q296.27 11.68 296.38 11.77L296.38 11.77L296.38 11.77Q296.49 11.87 297.02 11.87L297.02 11.87L297.57 11.87L297.58 12.41L294 12.41L293.99 11.87L294.35 11.87L294.35 11.87Q294.91 11.87 295.02 11.77L295.02 11.77L295.02 11.77Q295.13 11.67 295.13 11.25L295.13 11.25L295.13 4.14L295.13 4.14Q295.13 3.77 295.03 3.71L295.03 3.71L295.03 3.71Q294.92 3.64 294.42 3.64L294.42 3.64ZM305.70 7.83L305.70 7.83L305.70 7.83Q305.70 6.62 306.11 5.68L306.11 5.68L306.11 5.68Q306.52 4.72 307.21 4.12L307.21 4.12L307.21 4.12Q307.90 3.51 308.77 3.19L308.77 3.19L308.77 3.19Q309.61 2.88 310.56 2.88L310.56 2.88L310.56 2.88Q311.81 2.88 312.87 3.40L312.87 3.40L312.87 3.40Q313.95 3.93 314.66 5.07L314.66 5.07L314.66 5.07Q315.36 6.17 315.36 7.75L315.36 7.75L315.36 7.75Q315.36 8.70 315.05 9.54L315.05 9.54L315.05 9.54Q314.75 10.38 314.14 11.10L314.14 11.10L314.14 11.10Q313.54 11.81 312.60 12.22L312.60 12.22L312.60 12.22Q311.64 12.63 310.45 12.64L310.45 12.64L310.45 12.64Q309.31 12.64 308.38 12.23L308.38 12.23L308.38 12.23Q307.44 11.83 306.88 11.14L306.88 11.14L306.88 11.14Q306.30 10.45 306.01 9.60L306.01 9.60L306.01 9.60Q305.70 8.72 305.70 7.83ZM306.96 7.38L306.96 7.38L306.96 7.38Q306.96 8.52 307.39 9.60L307.39 9.60L307.39 9.60Q307.79 10.64 308.72 11.33L308.72 11.33L308.72 11.33Q309.63 12.03 310.82 12.04L310.82 12.04L310.82 12.04Q312.20 12.04 313.13 11.01L313.13 11.01L313.13 11.01Q314.08 9.97 314.08 8.10L314.08 8.10L314.08 8.10Q314.08 5.99 312.92 4.72L312.92 4.72L312.92 4.72Q311.77 3.46 310.26 3.45L310.26 3.45L310.26 3.45Q309.74 3.45 309.20 3.65L309.20 3.65L309.20 3.65Q308.66 3.85 308.15 4.25L308.15 4.25L308.15 4.25Q307.60 4.68 307.28 5.48L307.28 5.48L307.28 5.48Q306.96 6.27 306.96 7.38ZM323.49 3.64L323.48 3.08L325.65 3.08L331.39 10.48L331.39 4.14L331.39 4.14Q331.39 3.81 331.23 3.72L331.23 3.72L331.23 3.72Q331.08 3.64 330.62 3.64L330.62 3.64L330.13 3.64L330.16 3.08L333.14 3.08L333.14 3.64L332.81 3.64L332.81 3.64Q332.35 3.64 332.20 3.75L332.20 3.75L332.20 3.75Q332.05 3.86 332.05 4.25L332.05 4.25L332.05 12.32L332.05 12.47L332.05 12.47Q332.05 12.52 332.04 12.57L332.04 12.57L332.04 12.57Q332.02 12.61 331.99 12.64L331.99 12.64L331.99 12.64Q331.97 12.65 331.92 12.65L331.92 12.65L331.73 12.65L331.67 12.65L331.64 12.65L331.61 12.64L331.61 12.64Q331.58 12.64 331.57 12.63L331.57 12.63L331.57 12.63Q331.56 12.61 331.56 12.60L331.56 12.60L331.56 12.60Q331.56 12.58 331.54 12.57L331.54 12.57L331.54 12.57Q331.52 12.54 331.49 12.50L331.49 12.50L331.49 12.50Q331.47 12.48 331.45 12.45L331.45 12.45L331.45 12.45Q331.43 12.41 331.42 12.40L331.42 12.40L325.32 4.56L325.38 11.22L325.38 11.22Q325.38 11.67 325.55 11.77L325.55 11.77L325.55 11.77Q325.71 11.87 326.42 11.87L326.42 11.87L326.66 11.87L326.66 12.41L323.72 12.41L323.72 11.87L324.14 11.87L324.14 11.87Q324.52 11.87 324.63 11.76L324.63 11.76L324.63 11.76Q324.72 11.66 324.73 11.25L324.73 11.25L324.73 3.80L324.58 3.64L323.49 3.64ZM350.46 3.64L350.44 3.08L357.66 3.08L357.66 3.08Q357.67 4.14 357.72 5.28L357.72 5.28L357.18 5.30L357.18 5.30Q357.16 4.66 357.11 4.25L357.11 4.25L357.11 4.25Q357.07 3.89 357.01 3.80L357.01 3.80L357.01 3.80Q356.96 3.71 356.84 3.69L356.84 3.69L356.84 3.69Q356.75 3.68 356.16 3.68L356.16 3.68L353.78 3.68L353.78 3.68Q353.23 3.68 353.09 3.77L353.09 3.77L353.09 3.77Q352.97 3.86 352.97 4.33L352.97 4.33L352.97 6.28L352.97 6.28Q352.97 6.69 353.02 6.76L353.02 6.76L353.02 6.76Q353.09 6.84 353.43 6.84L353.43 6.84L355.54 6.84L355.54 6.84Q355.91 6.84 355.99 6.73L355.99 6.73L355.99 6.73Q356.07 6.63 356.08 6.14L356.08 6.14L356.08 5.61L356.59 5.63L356.59 8.97L356.08 8.97L356.08 8.24L356.08 8.24Q356.08 7.66 356.00 7.57L356.00 7.57L356.00 7.57Q355.92 7.46 355.57 7.46L355.57 7.46L353.47 7.46L353.47 7.46Q353.14 7.46 353.05 7.54L353.05 7.54L353.05 7.54Q352.97 7.63 352.97 7.89L352.97 7.89L352.97 11.20L352.97 11.20Q352.97 11.57 353.05 11.67L353.05 11.67L353.05 11.67Q353.14 11.77 353.41 11.77L353.41 11.77L353.41 11.77Q356.33 11.75 356.86 11.69L356.86 11.69L356.86 11.69Q357.38 11.63 357.46 11.38L357.46 11.38L357.46 11.36L357.47 11.35L357.70 10.17L358.18 10.25L357.83 12.41L350.72 12.41L350.72 11.87L351.09 11.87L351.09 11.87Q351.65 11.87 351.74 11.80L351.74 11.80L351.74 11.80Q351.83 11.72 351.83 11.33L351.83 11.33L351.83 4.24L351.83 4.24Q351.83 3.82 351.68 3.73L351.68 3.73L351.68 3.73Q351.51 3.64 350.85 3.64L350.85 3.64L350.46 3.64ZM369.04 12.41L366.05 12.41L366.05 11.87L366.05 11.87Q366.13 11.87 366.25 11.86L366.25 11.86L366.25 11.86Q366.37 11.85 366.40 11.85L366.40 11.85L366.64 11.85L366.64 11.85Q366.76 11.85 366.85 11.81L366.85 11.81L366.99 11.74L366.99 11.74Q367.06 11.72 367.16 11.61L367.16 11.61L367.16 11.61Q367.20 11.57 367.25 11.52L367.25 11.52L367.25 11.52Q367.30 11.46 367.32 11.45L367.32 11.45L367.53 11.20L367.53 11.20Q367.76 10.94 367.80 10.90L367.80 10.90L370.47 7.88L367.72 4.39L367.72 4.39Q367.25 3.81 367.10 3.72L367.10 3.72L367.10 3.72Q366.97 3.64 366.29 3.64L366.29 3.64L366.29 3.08L369.84 3.08L369.84 3.64L369.47 3.64L369.47 3.64Q369.17 3.64 369.00 3.66L369.00 3.66L369.00 3.66Q368.88 3.68 368.88 3.77L368.88 3.77L368.88 3.77Q368.88 3.90 369.39 4.60L369.39 4.60L371.21 7.04L373.08 4.92L373.08 4.92Q373.56 4.38 373.77 4.09L373.77 4.09L373.77 4.09Q373.89 3.92 373.89 3.82L373.89 3.82L373.89 3.82Q373.89 3.64 373.24 3.64L373.24 3.64L372.85 3.64L372.86 3.08L375.85 3.08L375.85 3.64L375.85 3.64Q375.18 3.64 375.04 3.71L375.04 3.71L375.04 3.71Q374.87 3.79 374.42 4.28L374.42 4.28L371.55 7.44L373.34 9.73L373.34 9.73Q374.52 11.24 374.88 11.56L374.88 11.56L374.88 11.56Q375.20 11.87 375.68 11.87L375.68 11.87L375.92 11.87L375.94 12.41L372.33 12.41L372.33 11.87L372.66 11.87L372.66 11.87Q373.36 11.87 373.36 11.69L373.36 11.69L373.36 11.69Q373.36 11.59 372.78 10.85L372.78 10.85L370.82 8.31L368.29 11.22L368.29 11.22Q367.97 11.59 367.97 11.73L367.97 11.73L367.97 11.73Q367.97 11.87 368.53 11.87L368.53 11.87L369.04 11.87L369.04 12.41ZM387.40 12.41L383.67 12.41L383.67 11.87L384.11 11.87L384.11 11.87Q384.49 11.87 384.54 11.81L384.54 11.81L384.54 11.81Q384.61 11.74 384.62 11.46L384.62 11.46L384.62 4.14L384.62 4.14Q384.62 3.81 384.53 3.72L384.53 3.72L384.53 3.72Q384.45 3.64 384.08 3.64L384.08 3.64L383.71 3.64L383.73 3.08L386.61 3.08L386.61 3.08Q387.76 3.08 388.41 3.19L388.41 3.19L388.41 3.19Q389.01 3.28 389.48 3.68L389.48 3.68L389.48 3.68Q390.67 4.64 390.67 6.19L390.67 6.19L390.67 6.19Q390.67 7.23 389.91 7.98L389.91 7.98L389.91 7.98Q389.13 8.74 387.72 8.73L387.72 8.73L387.72 8.73Q387.55 8.73 387.13 8.70L387.13 8.70L387.13 8.70Q387.02 8.69 386.60 8.62L386.60 8.62L386.60 8.62Q386.26 8.55 386.17 8.54L386.17 8.54L386.17 8.54Q385.88 8.47 385.86 8.46L385.86 8.46L385.75 8.44L385.75 11.46L385.75 11.46Q385.75 11.74 385.88 11.81L385.88 11.81L385.88 11.81Q385.98 11.87 386.70 11.87L386.70 11.87L387.40 11.87L387.40 12.41ZM385.75 4.28L385.75 8.02L385.75 8.02Q386.09 8.29 387.06 8.29L387.06 8.29L387.06 8.29Q388.20 8.29 388.77 7.75L388.77 7.75L388.77 7.75Q389.36 7.21 389.36 6.16L389.36 6.16L389.36 6.16Q389.36 4.98 388.45 4.31L388.45 4.31L388.45 4.31Q387.56 3.64 386.17 3.64L386.17 3.64L386.17 3.64Q385.92 3.64 385.83 3.75L385.83 3.75L385.83 3.75Q385.75 3.84 385.75 4.28L385.75 4.28ZM398.67 3.64L398.65 3.08L405.86 3.08L405.86 3.08Q405.88 4.14 405.93 5.28L405.93 5.28L405.38 5.30L405.38 5.30Q405.37 4.66 405.32 4.25L405.32 4.25L405.32 4.25Q405.28 3.89 405.22 3.80L405.22 3.80L405.22 3.80Q405.17 3.71 405.05 3.69L405.05 3.69L405.05 3.69Q404.95 3.68 404.37 3.68L404.37 3.68L401.99 3.68L401.99 3.68Q401.44 3.68 401.30 3.77L401.30 3.77L401.30 3.77Q401.17 3.86 401.17 4.33L401.17 4.33L401.17 6.28L401.17 6.28Q401.17 6.69 401.23 6.76L401.23 6.76L401.23 6.76Q401.30 6.84 401.64 6.84L401.64 6.84L403.75 6.84L403.75 6.84Q404.11 6.84 404.20 6.73L404.20 6.73L404.20 6.73Q404.28 6.63 404.28 6.14L404.28 6.14L404.28 5.61L404.80 5.63L404.80 8.97L404.28 8.97L404.28 8.24L404.28 8.24Q404.28 7.66 404.21 7.57L404.21 7.57L404.21 7.57Q404.13 7.46 403.78 7.46L403.78 7.46L401.68 7.46L401.68 7.46Q401.34 7.46 401.26 7.54L401.26 7.54L401.26 7.54Q401.17 7.63 401.17 7.89L401.17 7.89L401.17 11.20L401.17 11.20Q401.17 11.57 401.26 11.67L401.26 11.67L401.26 11.67Q401.34 11.77 401.62 11.77L401.62 11.77L401.62 11.77Q404.54 11.75 405.06 11.69L405.06 11.69L405.06 11.69Q405.58 11.63 405.67 11.38L405.67 11.38L405.67 11.36L405.68 11.35L405.90 10.17L406.38 10.25L406.03 12.41L398.93 12.41L398.93 11.87L399.30 11.87L399.30 11.87Q399.86 11.87 399.94 11.80L399.94 11.80L399.94 11.80Q400.04 11.72 400.04 11.33L400.04 11.33L400.04 4.24L400.04 4.24Q400.04 3.82 399.89 3.73L399.89 3.73L399.89 3.73Q399.72 3.64 399.06 3.64L399.06 3.64L398.67 3.64ZM414.59 3.64L414.20 3.64L414.22 3.08L417.44 3.08L417.44 3.08Q418.57 3.08 419.17 3.21L419.17 3.21L419.17 3.21Q419.82 3.37 420.28 3.75L420.28 3.75L420.28 3.75Q421.29 4.57 421.29 5.71L421.29 5.71L421.29 5.71Q421.29 6.43 420.81 7.04L420.81 7.04L420.81 7.04Q420.32 7.66 419.29 7.92L419.29 7.92L421.98 11.49L421.98 11.49Q422.28 11.87 422.58 11.87L422.58 11.87L423.18 11.87L423.21 12.41L421.18 12.41L418.18 8.10L418.01 8.10L418.01 8.10Q417.97 8.10 417.92 8.11L417.92 8.11L417.92 8.11Q417.86 8.11 417.85 8.11L417.85 8.11L417.85 8.11Q416.96 8.11 416.57 8.03L416.57 8.03L416.57 11.46L416.57 11.46Q416.57 11.76 416.71 11.81L416.71 11.81L416.71 11.81Q416.83 11.87 417.54 11.87L417.54 11.87L418.25 11.87L418.22 12.41L414.50 12.41L414.50 11.87L414.82 11.87L414.82 11.87Q415.28 11.87 415.35 11.81L415.35 11.81L415.35 11.81Q415.43 11.74 415.43 11.46L415.43 11.46L415.43 4.14L415.43 4.14Q415.43 3.82 415.24 3.73L415.24 3.73L415.24 3.73Q415.02 3.64 414.59 3.64L414.59 3.64ZM416.57 4.28L416.57 7.57L416.57 7.57Q416.75 7.70 417.46 7.71L417.46 7.71L417.46 7.71Q418.74 7.71 419.32 7.27L419.32 7.27L419.32 7.27Q419.90 6.84 419.90 5.92L419.90 5.92L419.90 5.92Q419.90 4.92 419.13 4.27L419.13 4.27L419.13 4.27Q418.37 3.64 416.99 3.64L416.99 3.64L416.99 3.64Q416.74 3.64 416.66 3.75L416.66 3.75L416.66 3.75Q416.58 3.84 416.57 4.28L416.57 4.28ZM431.24 5.35L430.74 5.33L430.74 5.33Q430.86 4.17 430.94 3.08L430.94 3.08L439.02 3.08L439.02 3.08Q438.94 4.13 438.92 4.53L438.92 4.53L438.92 4.53Q438.87 5.26 438.85 5.32L438.85 5.32L438.35 5.30L438.35 5.30Q438.44 4.34 438.44 4.16L438.44 4.16L438.44 4.16Q438.44 3.88 438.29 3.79L438.29 3.79L438.29 3.79Q438.12 3.69 437.72 3.69L437.72 3.69L436.11 3.69L436.11 3.69Q435.61 3.69 435.48 3.79L435.48 3.79L435.48 3.79Q435.39 3.87 435.38 4.36L435.38 4.36L435.38 11.22L435.38 11.22Q435.38 11.66 435.52 11.76L435.52 11.76L435.52 11.76Q435.68 11.87 436.19 11.87L436.19 11.87L436.75 11.87L436.77 12.41L433.08 12.40L433.08 11.87L433.30 11.87L433.30 11.87Q433.97 11.87 434.11 11.79L434.11 11.79L434.11 11.79Q434.25 11.70 434.25 11.28L434.25 11.28L434.25 4.48L434.25 4.48Q434.25 3.92 434.15 3.80L434.15 3.80L434.15 3.80Q434.05 3.69 433.63 3.69L433.63 3.69L432.16 3.69L432.16 3.69Q431.98 3.69 431.91 3.71L431.91 3.71L431.91 3.71Q431.84 3.72 431.73 3.72L431.73 3.72L431.73 3.72Q431.70 3.72 431.59 3.79L431.59 3.79L431.59 3.79Q431.50 3.84 431.48 3.86L431.48 3.86L431.48 3.86Q431.45 3.88 431.41 3.99L431.41 3.99L431.41 3.99Q431.38 4.05 431.35 4.14L431.35 4.14L431.35 4.14Q431.33 4.21 431.31 4.36L431.31 4.36L431.31 4.36Q431.28 4.59 431.28 4.61L431.28 4.61L431.28 4.61Q431.28 4.80 431.27 4.95L431.27 4.95L431.27 4.95Q431.27 5.02 431.26 5.15L431.26 5.15L431.26 5.15Q431.25 5.29 431.24 5.35L431.24 5.35Z"></path></g></svg>